TUF.17.Finale_Post-Fight.Presser.Highlight.webrip-WD 

TUF 17 Finale: Post-Fight Presser Highlight 

Hear from Miesha Tate and Cat Zingano at the TUF 17 Finale post-fight press conference, and see the staredown between Zingano and UFC women's bantamweight champion Ronda Rousey.

Format                                   : MPEG-4
Website                                  : Wrestling Desires   http://wrestlingforum.info/   
Source                                    : youtube   
Format profile                           : Base Media / Version 2
Codec ID                                 : mp42
File size                                : 62.7 MiB
Duration                                 : 2mn 12s
Overall bit rate mode                    : Variable
Overall bit rate                         : 3 955 Kbps
Encoded date                             : UTC 2013-04-13 06:19:20
Tagged date                              : UTC 2013-04-13 06:19:20
gsst                                     : 0
gstd                                     : 133003
gssd                                     : BADC236E4MH1365923928382487
gshh                                     :

Video
ID                                       : 1
Format                                   : AVC
Format/Info                              : Advanced Video Codec
Format profile                           : High@L4.0
Format settings, CABAC                   : Yes
Format settings, ReFrames                : 1 frame
Format settings, GOP                     : M=1, N=60
Codec ID                                 : avc1
Codec ID/Info                            : Advanced Video Coding
Duration                                 : 2mn 12s
Bit rate                                 : 3 761 Kbps
Maximum bit rate                         : 8 064 Kbps
Width                                    : 1 920 pixels
Height                                   : 1 080 pixels
Display aspect ratio                     : 16:9
Frame rate mode                          : Constant
Frame rate                               : 29.970 fps
Color space                              : YUV
Chroma subsampling                       : 4:2:0
Bit depth                                : 8 bits
Scan type                                : Progressive
Bits/(Pixel*Frame)                       : 0.061
Stream size                              : 59.6 MiB (95%)
Tagged date                              : UTC 2013-04-13 06:19:22

Audio
ID                                       : 2
Format                                   : AAC
Format/Info                              : Advanced Audio Codec
Format profile                           : LC
Codec ID                                 : 40
Duration                                 : 2mn 12s
Bit rate mode                            : Variable
Bit rate                                 : 192 Kbps
Maximum bit rate                         : 201 Kbps
Channel(s)                               : 2 channels
Channel positions                        : Front: L R
Sampling rate                            : 44.1 KHz
Compression mode                         : Lossy
Stream size                              : 3.04 MiB (5%)
Title                                    : IsoMedia File Produced by Google, 5-11-2011
Encoded date                             : UTC 2013-04-13 06:19:21
Tagged date                              : UTC 2013-04-13 06:19:22


